<?xml version="1.0" standalone="no"?>
<!DOCTYPE svg PUBLIC "-//W3C//DTD SVG 1.1//EN" "http://www.w3.org/Graphics/SVG/1.1/DTD/svg11.dtd" >
<svg xmlns="http://www.w3.org/2000/svg">
<metadata>Generated by IcoMoon</metadata>
<defs>
<font id="icomoon" horiz-adv-x="1024">
<font-face units-per-em="1024" ascent="960" descent="-64" />
<missing-glyph horiz-adv-x="1024" />
<glyph unicode="&#x20;" horiz-adv-x="512" d="" />
<glyph unicode="&#x68;" glyph-name="th-menu" d="M810.667 213.334h-597.333c-47.061 0-85.333-38.272-85.333-85.333s38.272-85.333 85.333-85.333h597.333c47.061 0 85.333 38.272 85.333 85.333s-38.272 85.333-85.333 85.333zM810.667 512h-597.333c-47.061 0-85.333-38.272-85.333-85.333s38.272-85.333 85.333-85.333h597.333c47.061 0 85.333 38.272 85.333 85.333s-38.272 85.333-85.333 85.333zM810.667 810.667h-597.333c-47.061 0-85.333-38.272-85.333-85.333s38.272-85.333 85.333-85.333h597.333c47.061 0 85.333 38.272 85.333 85.333s-38.272 85.333-85.333 85.333z" />
<glyph unicode="&#xe900;" glyph-name="timer" horiz-adv-x="887" d="M720.698 717.746l71.639 70.852 69.714-68.951-71.639-70.852c70.793-87.635 104.967-198.752 95.505-310.529-9.455-111.778-61.829-215.728-146.357-290.507-84.534-74.779-194.807-114.708-308.175-111.589s-221.224 49.056-301.418 128.369c-80.194 79.319-126.639 185.993-129.795 298.114-3.156 112.125 37.216 221.188 112.824 304.793s180.714 135.403 293.731 144.757c113.017 9.355 225.365-24.445 313.971-94.457zM394.408 618.66v-292.577h98.607v292.577h-98.607zM246.497 960h394.429v-97.526h-394.429v97.526z" />
<glyph unicode="&#xe901;" glyph-name="list-card" horiz-adv-x="805" d="M510 900h-35.126c-12.394 34.922-45.762 60-84.874 60s-72.48-25.078-84.874-60h-35.125c-49.628 0-90-40.372-90-90 0-16.582 13.418-30 30-30h360c16.582 0 30 13.418 30 30 0 49.628-40.372 90-89.999 90zM690 840h-33.036c1.978-9.698 3.036-19.728 3.036-30 0-49.628-40.372-90-90-90h-360c-49.627 0-90 40.372-90 90 0 10.272 1.058 20.302 3.036 30h-33.036c-49.628 0-90-40.373-90-90v-723.998c0-49.627 40.372-90.002 90-90.002h600c49.628 0 90.003 40.375 90.003 90.002v723.998c0 49.627-40.375 90-90.003 90zM300 119.998h-120c-16.582 0-30 13.422-30 30.003s13.418 29.996 30 29.996h120c16.582 0 30-13.414 30-29.996s-13.418-30.003-30-30.003zM300 330h-120c-16.582 0-30 13.418-30 30s13.418 30 30 30h120c16.582 0 30-13.418 30-30s-13.418-30-30-30zM300 540h-120c-16.582 0-30 13.418-30 30s13.418 30 30 30h120c16.582 0 30-13.418 30-30s-13.418-30-30-30zM591.21 111.214c11.718-11.725 11.718-30.705 0-42.423-5.86-5.866-13.536-8.792-21.21-8.792s-15.352 2.926-21.21 8.792l-38.79 38.788-38.791-38.788c-5.859-5.866-13.536-8.792-21.21-8.792s-15.352 2.926-21.21 8.792c-11.717 11.717-11.717 30.698 0 42.423l38.788 38.788-38.79 38.788c-11.718 11.717-11.718 30.705 0 42.423s30.704 11.718 42.421 0l38.791-38.788 38.79 38.788c11.718 11.718 30.704 11.718 42.422 0s11.717-30.705 0-42.423l-38.791-38.788 38.788-38.788zM621.21 398.79l-90-90c-5.86-5.86-13.537-8.79-21.21-8.79s-15.352 2.93-21.21 8.79l-60.001 60c-11.717 11.718-11.717 30.704 0 42.422s30.704 11.718 42.422 0l38.788-38.79 68.789 68.79c11.718 11.717 30.705 11.717 42.422 0s11.718-30.705-0.001-42.422zM621.21 578.79l-90-89.999c-5.86-5.86-13.537-8.79-21.21-8.79s-15.352 2.93-21.21 8.79l-60.001 60c-11.717 11.718-11.717 30.704 0 42.422s30.704 11.717 42.422 0l38.788-38.791 68.789 68.79c11.718 11.718 30.705 11.718 42.422 0s11.718-30.704-0.001-42.422z" />
<glyph unicode="&#xe902;" glyph-name="flag" horiz-adv-x="866" d="M67.516 1.032h-67.516v945.228h810.197l-195.797-303.824 195.797-303.824h-742.68v-337.58z" />
<glyph unicode="&#xe903;" glyph-name="grid-ms" d="M56.889 391.111h341.333c15.088 0 29.558 5.994 40.227 16.663s16.662 25.138 16.662 40.226v455.111c0 15.088-5.993 29.558-16.662 40.227s-25.139 16.662-40.227 16.662h-341.333c-15.088 0-29.558-5.994-40.227-16.662s-16.662-25.139-16.662-40.227v-455.111c0-15.088 5.994-29.558 16.662-40.226s25.139-16.663 40.227-16.663zM0-7.109c0-15.089 5.994-29.557 16.662-40.229s25.139-16.662 40.227-16.662h341.333c15.088 0 29.558 5.99 40.227 16.662s16.662 25.139 16.662 40.229v227.555c0 15.087-5.993 29.557-16.662 40.226s-25.139 16.663-40.227 16.663h-341.333c-15.088 0-29.558-5.994-40.227-16.663s-16.662-25.138-16.662-40.226v-227.555zM568.889-7.109c0-15.089 5.993-29.557 16.662-40.229s25.139-16.662 40.227-16.662h341.331c15.089 0 29.557 5.99 40.229 16.662s16.662 25.139 16.662 40.229v398.22c0 15.088-5.99 29.558-16.662 40.226s-25.139 16.663-40.229 16.663h-341.331c-15.088 0-29.558-5.993-40.227-16.663s-16.662-25.138-16.662-40.226v-398.22zM625.778 561.778h341.331c15.089 0 29.557 5.993 40.229 16.662s16.662 25.138 16.662 40.226v284.445c0 15.088-5.99 29.558-16.662 40.227s-25.139 16.662-40.229 16.662h-341.331c-15.088 0-29.558-5.994-40.227-16.662s-16.662-25.139-16.662-40.227v-284.445c0-15.088 5.993-29.558 16.662-40.226s25.139-16.662 40.227-16.662z" />
<glyph unicode="&#xe904;" glyph-name="pie" d="M512 960c-101.264 0-200.254-30.028-284.452-86.287s-149.822-136.223-188.574-229.779c-38.752-93.556-48.891-196.501-29.136-295.82s68.519-190.55 140.124-262.149c71.604-71.607 162.834-120.371 262.152-140.127s202.264-9.618 295.82 29.133c93.558 38.758 173.518 104.382 229.779 188.577 56.261 84.198 86.287 183.188 86.287 284.453-0.154 135.744-54.148 265.882-150.133 361.868s-226.123 149.977-361.867 150.132zM512 9.143c-116.392 0-228.017 46.234-310.319 128.541-82.302 82.3-128.538 193.924-128.538 310.316s46.237 228.017 128.538 310.319c82.302 82.302 193.927 128.538 310.319 128.538v-438.857l310.162-310.162c-40.675-40.821-89.015-73.201-142.242-95.291-53.227-22.082-110.293-33.434-167.92-33.404z" />
<glyph unicode="&#xe905;" glyph-name="search" d="M913.081 156.662c-25.122 24.064-49.571 48.816-73.323 74.235-19.953 20.275-31.968 35.026-31.968 35.026l-150.187 71.714c60.128 68.194 93.311 155.98 93.33 246.896 0 206.989-168.424 375.467-375.467 375.467s-375.467-168.477-375.467-375.467c0-206.989 168.424-375.467 375.467-375.467 94.564 0 180.76 35.401 246.896 93.277l71.714-150.187c0 0 14.75-12.015 35.026-31.968 20.758-19.471 48.060-45.807 74.235-73.323l72.841-74.664 32.397-34.65 113.766 113.766-34.65 32.397c-20.329 19.953-47.47 46.451-74.611 72.948zM375.467 316.343c-147.88 0-268.19 120.31-268.19 268.19s120.31 268.19 268.19 268.19c147.88 0 268.19-120.31 268.19-268.19s-120.31-268.19-268.19-268.19z" />
<glyph unicode="&#xe906;" glyph-name="user" horiz-adv-x="1097" d="M525.128 960c-71.608 0-127.552-26.921-167.832-80.762s-60.42-122.666-60.42-206.476c-0.497-104.127 32.323-186.667 98.461-247.619 8.454-8.127 11.437-18.54 8.951-31.238l-17.156-36.571c-5.47-12.191-13.55-21.715-24.242-28.572s-33.193-16.635-67.506-29.333c-1.492-0.508-32.945-10.921-94.359-31.238s-94.111-31.492-98.089-33.524c-41.771-17.776-69.122-36.318-82.051-55.62-13.924-32-20.886-113.013-20.886-243.046h1050.258c0 130.033-6.963 211.046-20.89 243.046-12.924 19.302-40.28 37.844-82.052 55.62-3.979 2.032-36.674 13.207-98.085 33.524-61.418 20.317-92.869 30.73-94.362 31.238-34.311 12.698-56.814 22.476-67.505 29.333s-18.772 16.381-24.242 28.572l-17.156 36.571c-2.486 12.698 0.497 23.111 8.951 31.238 66.139 60.952 98.958 143.492 98.461 247.619 0 83.809-20.136 152.635-60.418 206.476-40.28 53.841-96.224 80.762-167.832 80.762z" />
<glyph unicode="&#xe907;" glyph-name="log-out" horiz-adv-x="1170" d="M0 755.515v-615.029c0-56.627 23.107-106.964 60.077-146.286 36.971-37.749 84.724-58.2 140.18-58.2h301.927v127.408h-301.927c-41.592 0-73.942 34.611-73.942 77.078v615.029c0 42.47 32.35 75.502 73.942 75.502h301.927v128.983h-301.927c-55.456 0-103.21-22.021-140.18-59.773-36.971-39.324-60.077-88.086-60.077-144.713zM331.196 569.905v-245.383c0-28.314 24.647-51.908 52.375-51.908h278.821v-193.474c0-17.306 9.242-31.459 24.647-39.322 6.162-1.58 12.323-1.58 15.405-1.58 10.783 0 20.026 3.152 27.728 11.015l362.005 369.646c16.947 14.157 15.404 42.47 0 58.2l-362.005 368.074c-21.566 23.594-67.779 9.438-67.779-28.314v-195.048h-278.821c-27.728 0-52.375-23.594-52.375-51.907z" />
<glyph unicode="&#xe908;" glyph-name="book-user" horiz-adv-x="878" d="M0 822.154c0 36.56 14.523 71.621 40.374 97.472s60.913 40.374 97.472 40.374h590.769c36.561 0 71.619-14.523 97.475-40.374 25.849-25.851 40.375-60.913 40.375-97.472v-689.231c0-20.89-8.302-40.923-23.077-55.698-14.768-14.775-34.809-23.069-55.698-23.069h-705.573c4.074-11.527 11.622-21.497 21.603-28.555 9.981-7.051 21.905-10.84 34.127-10.832h689.231c10.445 0 20.465-4.147 27.845-11.535 7.387-7.387 11.542-17.401 11.542-27.845s-4.155-20.465-11.542-27.853c-7.38-7.387-17.401-11.535-27.845-11.535h-689.231c-36.56 0-71.621 14.526-97.472 40.375s-40.374 60.913-40.374 97.47v748.308zM630.154 428.308c0 15.668-6.224 30.694-17.303 41.773s-26.105 17.303-41.774 17.303h-275.692c-15.668 0-30.694-6.224-41.773-17.303s-17.303-26.105-17.303-41.773v-19.692c0-77.627 73.255-157.539 196.923-157.539s196.923 79.911 196.923 157.539v19.692zM541.539 635.077c0 28.725-11.411 56.274-31.723 76.585s-47.86 31.723-76.585 31.723c-28.725 0-56.274-11.411-76.585-31.723s-31.723-47.86-31.723-76.585c0-28.725 11.411-56.273 31.723-76.585s47.86-31.723 76.585-31.723c28.725 0 56.273 11.411 76.585 31.723s31.723 47.86 31.723 76.585z" />
<glyph unicode="&#xe909;" glyph-name="gear" d="M511.978 371.48c42.395 0 76.763 34.368 76.763 76.763s-34.368 76.763-76.763 76.763c-42.396 0-76.763-34.368-76.763-76.763s34.368-76.763 76.763-76.763zM1018.097 534.219l-40.426 128.963c-4.367 14.905-11.688 28.778-21.533 40.791s-22.001 21.922-35.76 29.134c-13.751 7.212-28.818 11.579-44.303 12.842-15.477 1.262-31.049-0.605-45.795-5.492l-17.401-5.629c-13.627-4.506-28.145-5.65-42.313-3.332s-27.568 8.025-39.051 16.638l-5.632 4.094c-11.208 8.579-20.243 19.671-26.377 32.383s-9.194 26.687-8.934 40.799v14.329c0.249 32.138-12.267 63.059-34.799 85.975-10.718 10.826-23.469 19.428-37.52 25.312s-29.127 8.934-44.361 8.975h-130.498c-31.31-0.405-61.194-13.162-83.142-35.495s-34.188-52.432-34.050-83.744v-12.282c-0.049-14.855-3.431-29.509-9.896-42.884s-15.85-25.127-27.461-34.392l-6.653-5.118c-12.828-9.704-27.831-16.128-43.706-18.714s-32.143-1.257-47.387 3.874c-14 4.845-28.839 6.799-43.617 5.743s-29.188-5.099-42.358-11.884c-13.712-6.806-25.877-16.361-35.738-28.070s-17.206-25.323-21.579-39.994l-41.964-133.056c-9.731-29.999-7.236-62.626 6.945-90.796s38.902-49.608 68.795-59.66h8.188c13.79-5.168 26.167-13.514 36.125-24.362s17.219-23.891 21.192-38.072l3.071-8.188c5.705-15.666 7.613-32.462 5.567-49.009s-7.988-32.375-17.337-46.177c-18.924-25.768-26.906-57.973-22.21-89.6s21.69-60.116 47.285-79.28l105.934-80.347c20.059-14.585 44.289-22.301 69.087-22.001 6.637-0.651 13.322-0.651 19.958 0 15.359 2.97 29.95 9.040 42.884 17.84s23.94 20.144 32.345 33.331l11.771 16.889c8.256 11.842 19.182 21.584 31.893 28.431 12.712 6.839 26.855 10.606 41.288 10.979 15.125 0.373 30.098-3.094 43.522-10.079 13.423-6.978 24.86-17.247 33.241-29.842l6.141-8.697c8.726-12.99 20.017-24.049 33.178-32.505s27.915-14.131 43.353-16.677c15.437-2.538 31.231-1.894 46.408 1.902 15.176 3.789 29.417 10.65 41.844 20.158l103.892 77.787c24.561 19.076 40.894 46.826 45.656 77.561 4.754 30.735-2.428 62.12-20.070 87.735l-13.305 19.445c-8.002 12.363-13.239 26.307-15.36 40.879s-1.068 29.431 3.079 43.561c4.228 15.125 12.069 28.994 22.864 40.407 10.789 11.413 24.188 20.027 39.058 25.098l10.233 3.583c29.616 10.277 54.075 31.666 68.206 59.647 14.139 27.981 16.837 60.362 7.534 90.297zM511.97 269.129c-35.425 0-70.055 10.505-99.51 30.186s-52.413 47.655-65.97 80.385c-13.557 32.729-17.104 68.743-10.193 103.488s23.97 66.659 49.020 91.709c25.049 25.050 56.964 42.108 91.709 49.020s70.759 3.365 103.488-10.192c32.729-13.557 60.703-36.514 80.385-65.97s30.186-64.085 30.186-99.511c0-47.504-18.871-93.063-52.462-126.653s-79.149-52.462-126.653-52.462z" />
<glyph unicode="&#xe90a;" glyph-name="alarm" d="M984.084 129.92l-10.706 9.446c-30.382 27.069-56.97 58.107-79.058 92.283-24.115 47.165-38.574 98.673-42.516 151.496v155.593c0.205 82.973-29.891 163.167-84.639 225.514s-130.381 102.555-212.685 113.070v40.63c0 11.152-4.434 21.847-12.319 29.732s-18.58 12.315-29.732 12.315c-11.15 0-21.846-4.43-29.731-12.315s-12.316-18.58-12.316-29.732v-41.26c-81.567-11.273-156.285-51.725-210.315-113.862s-83.71-141.75-83.545-224.092v-155.593c-3.945-52.823-18.401-104.33-42.52-151.496-21.705-34.089-47.868-65.126-77.795-92.283l-10.709-9.446v-88.822h938.584v88.822zM431.95 8.028c2.762-19.968 12.655-38.257 27.852-51.497s34.671-20.531 54.825-20.531c20.157 0 39.629 7.291 54.825 20.531s25.093 31.529 27.853 51.497h-165.354z" />
<glyph unicode="&#xe90b;" glyph-name="envelope" horiz-adv-x="1485" d="M1308.447 960h-1137.78c-96.711 0-170.666-73.955-170.666-170.666v-682.669c0-96.712 73.955-170.665 170.666-170.665h1137.78c96.707 0 170.665 73.953 170.665 170.665v682.669c0 96.711-73.958 170.666-170.665 170.666zM1353.953 83.912l-443.73 318.577-170.67-113.777-176.353 113.777-438.045-318.577 358.4 369.777-438.044 341.334 694.042-375.469 688.358 369.78-432.358-341.334 358.4-364.088z" />
<glyph unicode="&#xe90c;" glyph-name="live" horiz-adv-x="1390" d="M288.444 941.804c-5.576 5.69-12.22 10.226-19.55 13.347s-15.204 4.768-23.171 4.846c-7.967 0.078-15.871-1.415-23.262-4.394s-14.12-7.384-19.806-12.964c-64.325-63.952-115.351-140.008-150.134-223.781s-52.632-173.603-52.521-264.31c-0.104-94.187 19.151-187.389 56.57-273.827 37.419-86.433 92.204-164.25 160.954-228.63 11.571-10.701 26.855-16.464 42.608-16.069 15.753 0.388 30.734 6.897 41.762 18.154 26.397 26.397 23.139 68.418-2.256 92.723-55.175 52.582-99.081 115.836-129.050 185.915s-45.377 145.518-45.286 221.735c0 154.204 61.899 294.041 162.307 395.786 24.225 24.643 26.732 65.574 0.835 91.47zM435.569 794.616c-11.001 11.32-26.042 17.817-41.825 18.067s-31.022-5.766-42.378-16.731c-45.206-44.613-81.086-97.774-105.552-156.385s-37.029-121.506-36.957-185.019c0-141.34 60.98-268.392 158.13-356.193 11.465-10.123 26.388-15.455 41.675-14.877 15.288 0.571 29.768 7.007 40.438 17.971 27.399 27.399 22.304 70.502-3.425 94.727-35.267 33.152-63.36 73.186-82.542 117.626s-29.043 92.342-28.976 140.745c0 96.064 38.175 183.274 100.241 247.262 23.891 24.559 27.817 66.243 1.17 92.807zM901.010 794.616c11.008 11.32 26.046 17.817 41.83 18.067s31.020-5.766 42.372-16.731c45.21-44.613 81.093-97.774 105.552-156.385 24.466-58.612 37.032-121.506 36.959-185.019 0-141.34-60.979-268.392-158.128-356.193-11.469-10.123-26.39-15.455-41.677-14.877-15.287 0.571-29.769 7.007-40.441 17.971-27.399 27.399-22.301 70.502 3.423 94.727 35.269 33.152 63.364 73.186 82.542 117.626 19.185 44.44 29.045 92.342 28.979 140.745 0 96.064-38.173 183.274-100.242 247.262-23.888 24.559-27.816 66.243-1.17 92.807zM1048.071 941.804c5.581 5.69 12.222 10.226 19.551 13.347 7.336 3.122 15.206 4.768 23.172 4.846 7.973 0.078 15.872-1.415 23.267-4.394 7.387-2.978 14.117-7.384 19.807-12.964 64.322-63.952 115.346-140.008 150.133-223.781 34.779-83.773 52.626-173.603 52.517-264.31 0.102-94.187-19.149-187.389-56.569-273.827-37.42-86.433-92.204-164.25-160.951-228.63-11.571-10.701-26.858-16.464-42.613-16.069-15.748 0.388-30.735 6.897-41.757 18.154-26.397 26.397-23.142 68.418 2.341 92.723 55.157 52.59 99.050 115.844 129.002 185.924 29.952 70.077 45.349 145.514 45.246 221.725 0 154.204-61.901 294.041-162.304 395.786-24.225 24.643-26.734 65.574-0.841 91.47zM668.301 579.848c-33.232 0-65.103-13.201-88.602-36.699s-36.699-55.37-36.699-88.602c0-33.232 13.202-65.103 36.699-88.602s55.37-36.7 88.602-36.7c33.232 0 65.102 13.202 88.603 36.7 23.493 23.499 36.696 55.369 36.696 88.602s-13.202 65.103-36.696 88.602c-23.501 23.499-55.371 36.699-88.603 36.699z" />
<glyph unicode="&#xe90d;" glyph-name="angle-left" horiz-adv-x="512" d="M63.4 472.857l272 272c18.8 18.8 49.2 18.8 67.8 0l45.2-45.2c18.8-18.8 18.8-49.2 0-67.8l-192.6-193 192.8-192.8c18.8-18.8 18.8-49.2 0-67.8l-45.2-45.4c-18.8-18.8-49.2-18.8-67.8 0l-272 272c-19 18.8-19 49.2-0.2 68z" />
<glyph unicode="&#xe90e;" glyph-name="cancel" d="M626.784 447.968l195.072-195.072c12.672-12.672 12.672-33.248 0-45.92l-68.832-68.832c-12.672-12.672-33.216-12.672-45.92 0l-195.104 195.072-195.104-195.072c-12.672-12.672-33.216-12.672-45.888 0l-68.864 68.832c-12.672 12.672-12.672 33.216 0 45.92l195.104 195.072-195.104 195.104c-12.672 12.672-12.672 33.248 0 45.92l68.896 68.832c12.672 12.672 33.216 12.672 45.888 0l195.072-195.104 195.104 195.104c12.672 12.672 33.216 12.672 45.92 0l68.832-68.864c12.672-12.672 12.672-33.216 0-45.92l-195.072-195.072z" />
<glyph unicode="&#xe90f;" glyph-name="angle-right" horiz-adv-x="512" d="M448.6 404.857l-272-272c-18.8-18.8-49.2-18.8-67.8 0l-45.2 45.2c-18.8 18.8-18.8 49.2 0 67.8l192.8 192.8-192.8 192.8c-18.8 18.8-18.8 49.2 0 67.8l45 45.6c18.8 18.8 49.2 18.8 67.8 0l272-272c19-18.8 19-49.2 0.2-68z" />
<glyph unicode="&#xe910;" glyph-name="facebook-square" horiz-adv-x="896" d="M800 886.857h-704c-53.019 0-96-42.981-96-96v0-704c0-53.019 42.981-96 96-96v0h274.5v304.62h-126v143.38h126v109.28c0 124.3 74 192.96 187.34 192.96 54.28 0 111.040-9.68 111.040-9.68v-122h-62.54c-61.62 0-80.84-38.24-80.84-77.46v-93.1h137.56l-22-143.38h-115.56v-304.62h274.5c53.019 0 96 42.981 96 96v0 704c0 53.019-42.981 96-96 96v0z" />
<glyph unicode="&#xe911;" glyph-name="instagram-square" horiz-adv-x="896" d="M448 545.537c-58.901-0.023-106.64-47.776-106.64-106.68 0-58.918 47.762-106.68 106.68-106.68s106.68 47.762 106.68 106.68v0c-0.046 58.913-47.803 106.657-106.718 106.68h-0.002zM697.42 627.537c-11.218 27.905-32.915 49.602-60.094 60.562l-0.726 0.258c-42 16.58-142 12.86-188.6 12.86s-146.5 3.86-188.62-12.86c-27.905-11.218-49.602-32.915-60.562-60.094l-0.258-0.726c-16.56-42-12.86-142.1-12.86-188.66s-3.7-146.54 12.94-188.68c11.218-27.905 32.915-49.602 60.094-60.562l0.726-0.258c42-16.58 142-12.86 188.62-12.86s146.48-3.86 188.6 12.86c27.905 11.218 49.602 32.915 60.562 60.094l0.258 0.726c16.7 42 12.86 142.1 12.86 188.66s3.84 146.52-12.86 188.66zM448 274.857c-90.575 0-164 73.425-164 164s73.425 164 164 164c90.575 0 164-73.425 164-164v0c0-0.059 0-0.13 0-0.2 0-90.464-73.336-163.8-163.8-163.8-0.070 0-0.141 0-0.211 0h0.011zM618.76 571.457c-0.006 0-0.013 0-0.020 0-21.141 0-38.28 17.139-38.28 38.28s17.139 38.28 38.28 38.28c21.141 0 38.28-17.139 38.28-38.28v0c0-0.048 0-0.104 0-0.16 0-21.090-17.092-38.189-38.179-38.2h-0.001zM800 886.857h-704c-53.019 0-96-42.981-96-96v0-704c0-53.019 42.981-96 96-96v0h704c53.019 0 96 42.981 96 96v0 704c0 53.019-42.981 96-96 96v0zM765.76 306.857c-2.58-51.26-14.28-96.68-51.7-134s-82.8-49.26-134-51.7c-52.82-2.98-211.18-2.98-264 0-51.26 2.58-96.52 14.3-134 51.7s-49.26 82.84-51.7 134c-2.98 52.84-2.98 211.22 0 264 2.58 51.26 14.14 96.68 51.7 134s82.94 49.12 134 51.56c52.82 2.98 211.18 2.98 264 0 51.26-2.58 96.66-14.3 134-51.7s49.26-82.84 51.7-134.1c2.98-52.64 2.98-210.88 0-263.76z" />
<glyph unicode="&#xe912;" glyph-name="linkedin" horiz-adv-x="896" d="M832 886.857h-768.2c-35.2 0-63.8-29-63.8-64.6v-766.8c0-35.6 28.6-64.6 63.8-64.6h768.2c35.2 0 64 29 64 64.6v766.8c0 35.6-28.8 64.6-64 64.6zM270.8 118.857h-132.8v427.6h133v-427.6zM204.4 604.857c-42.6 0-77 34.6-77 77s34.4 77 77 77c42.4 0 77-34.6 77-77 0-42.6-34.4-77-77-77zM768.6 118.857h-132.8v208c0 49.6-1 113.4-69 113.4-69.2 0-79.8-54-79.8-109.8v-211.6h-132.8v427.6h127.4v-58.4h1.8c17.8 33.6 61.2 69 125.8 69 134.4 0 159.4-88.6 159.4-203.8v-234.4z" />
<glyph unicode="&#xe913;" glyph-name="twitter-square" horiz-adv-x="896" d="M800 886.857h-704c-53 0-96-43-96-96v-704c0-53 43-96 96-96h704c53 0 96 43 96 96v704c0 53-43 96-96 96zM702.2 569.257c0.4-5.6 0.4-11.4 0.4-17 0-173.4-132-373.2-373.2-373.2-74.4 0-143.4 21.6-201.4 58.8 10.6-1.2 20.8-1.6 31.6-1.6 61.4 0 117.8 20.8 162.8 56-57.6 1.2-106 39-122.6 91 20.2-3 38.4-3 59.2 2.4-60 12.2-105 65-105 128.8v1.6c17.4-9.8 37.8-15.8 59.2-16.6-35.411 23.8-58.4 63.708-58.4 108.986 0 0.075 0 0.151 0 0.226v-0.012c0 24.4 6.4 46.8 17.8 66.2 64.6-79.6 161.6-131.6 270.4-137.2-18.6 89 48 161.2 128 161.2 37.8 0 71.8-15.8 95.8-41.4 29.6 5.6 58 16.6 83.2 31.6-9.8-30.4-30.4-56-57.6-72.2 26.4 2.8 52 10.2 75.6 20.4-17.8-26.2-40.2-49.4-65.8-68z" />
<glyph unicode="&#xe914;" glyph-name="angle-down" horiz-adv-x="640" d="M286 246.257l-272 272c-18.8 18.8-18.8 49.2 0 67.8l45.2 45.2c18.8 18.8 49.2 18.8 67.8 0l192.8-192.8 192.8 192.8c18.8 18.8 49.2 18.8 67.8 0l45.2-45.2c18.8-18.8 18.8-49.2 0-67.8l-272-272c-18.4-18.8-48.8-18.8-67.6 0z" />
<glyph unicode="&#xe915;" glyph-name="angle-up" horiz-adv-x="640" d="M354 631.457l272-272c18.8-18.8 18.8-49.2 0-67.8l-45.2-45.2c-18.8-18.8-49.2-18.8-67.8 0l-193 192.6-192.8-192.8c-18.8-18.8-49.2-18.8-67.8 0l-45.4 45.2c-18.8 18.8-18.8 49.2 0 67.8l272 272c18.8 19 49.2 19 68 0.2z" />
<glyph unicode="&#xe916;" glyph-name="clock" d="M512 960c-282.757 0-512-229.243-512-512s229.243-512 512-512c282.757 0 512 229.243 512 512s-229.243 512-512 512zM748.308 369.231h-236.308c-10.446 0-20.463 4.15-27.849 11.535s-11.535 17.404-11.535 27.849v354.462c0 10.446 4.15 20.463 11.535 27.849s17.404 11.536 27.849 11.536c10.446 0 20.463-4.15 27.849-11.536s11.535-17.403 11.535-27.849v-315.077h196.923c10.446 0 20.463-4.15 27.849-11.535s11.535-17.404 11.535-27.849c0-10.446-4.15-20.463-11.535-27.849s-17.404-11.535-27.849-11.535z" />
<glyph unicode="&#xe917;" glyph-name="i" horiz-adv-x="427" d="M208.25 919.167c30.694 0 56.666-10.861 77.917-32.583 21.25-21.25 31.875-46.986 31.875-77.208s-10.861-55.959-32.583-77.208c-21.25-21.25-46.986-31.875-77.208-31.875s-55.958 10.625-77.208 31.875c-21.25 21.25-31.875 46.986-31.875 77.208s10.625 55.958 31.875 77.208c21.25 21.722 46.986 32.583 77.208 32.583zM307.417 598.292v-524.875c0-46.75 5.431-76.736 16.291-89.958 10.861-12.749 32.111-20.070 63.75-21.956v-25.502h-357.708v25.502c29.278 0.943 51 9.442 65.167 25.498 9.444 10.863 14.167 39.667 14.167 86.417v386.752c0 46.75-5.431 76.498-16.292 89.248-10.861 13.222-31.875 20.778-63.041 22.667v26.208h277.667z" />
<glyph unicode="&#xe918;" glyph-name="star" horiz-adv-x="1067" d="M1027.529 528.858c33.31 24.359 16.081 77.111-25.186 77.111h-303.198c-18.56 0-34.987 11.994-40.64 29.67l-94.042 294.040c-12.651 39.559-68.625 39.559-81.276 0l-94.040-294.040c-5.653-17.675-22.082-29.67-40.639-29.67h-304.532c-41.135 0-58.449-52.475-25.392-76.957l247.249-183.095c14.646-10.846 20.786-29.798 15.283-47.172l-93.173-294.161c-12.492-39.437 32.821-71.791 66.067-47.172l244.422 181.009c15.087 11.17 35.699 11.17 50.786 0l243.917-180.634c33.293-24.653 78.652 7.825 66.031 47.287l-94.494 295.454c-5.594 17.493 0.631 36.599 15.458 47.441l247.398 180.89z" />
<glyph unicode="&#xe919;" glyph-name="box" horiz-adv-x="956" d="M0 960h955.733v-224h-955.733v224zM812.373 680h-764.587v-616c0-29.703 10.069-58.191 27.993-79.196s42.233-32.802 67.581-32.802h669.013c25.347 0 49.657 11.796 67.577 32.802 17.927 21.006 27.996 49.493 27.996 79.196v616h-95.573zM669.013 344h-382.293v112h382.293v-112z" />
<glyph unicode="&#xe91a;" glyph-name="list-check" horiz-adv-x="751" d="M623.701 885.196h-90.579v-32.425c-0.061-62.225-47.881-112.66-106.88-112.724h-158.463c-58.999 0.064-106.818 50.499-106.88 112.724v32.425h-90.579c-38.823-0.054-70.27-33.221-70.321-74.167v-784.863c0.041-40.946 31.499-74.124 70.321-74.165h553.38c38.823 0.041 70.284 33.219 70.325 74.165v784.863c-0.041 40.946-31.502 74.113-70.325 74.167zM507.264 464.444l-189.686-195.316c-7.1-7.305-18.433-7.305-25.532 0l-105.288 108.422c-7.222 7.434-7.365 19.644-0.306 27.261 7.049 7.617 18.626 7.767 25.848 0.323l92.517-95.263 176.905 182.168c7.222 7.434 18.799 7.294 25.848-0.323 7.059-7.627 6.916-19.827-0.306-27.272zM267.788 778.609h158.462c38.823 0.043 70.281 33.221 70.321 74.166v32.425h-59.621c-8.579 0-16.004 6.304-17.851 15.147-7.201 34.566-37.506 59.653-72.076 59.653s-64.884-25.088-72.075-59.664c-1.836-8.843-9.272-15.147-17.851-15.147h-59.631v-32.425c0.051-40.934 31.508-74.112 70.321-74.155z" />
<glyph unicode="&#xe91b;" glyph-name="teaching" horiz-adv-x="1161" d="M992.215 960h-480.1c-55.469 0-100.6-47.599-100.6-106.102v-324.822l-89.145 46.755c-3.010 1.582-6.070 3.077-9.155 4.493 26.171 28.816 42.305 67.859 42.305 110.815 0 88.418-68.201 160.358-152.035 160.358-83.842 0-152.043-71.939-152.043-160.358 0-48.047 20.169-91.206 52.018-120.62-58.654-34.804-103.46-102.699-103.46-186.808v-108.5c0-46.715 28.756-86.467 68.585-100.598v-188.757c0-18.637 14.332-33.765 32.016-33.765h205.754c17.684 0 32.016 15.128 32.016 33.765v379.398l102.502-54.045c39.228-20.682 92.438-8.354 116.5 38.736h114.791l-121.553-352.538c-6.044-17.524 2.535-36.905 19.152-43.274 18.993-7.291 35.885 5.277 41.029 20.186l129.507 375.626h22.446l130.833-375.728c4.97-14.254 21.736-27.552 41.090-20.050 16.596 6.431 25.115 25.825 19.012 43.336l-122.73 352.442h161.266c54.395 0 100.598 46.28 100.598 106.102v397.852c0 59.831-46.203 106.102-100.598 106.102zM115.474 691.139c0 51.187 39.479 92.824 88.003 92.824 48.533 0 88.011-41.637 88.011-92.824 0-51.178-39.479-92.815-88.011-92.815-48.524 0-88.003 41.637-88.003 92.815zM502.652 386.049c-0.083-0.246-0.167-0.501-0.242-0.756-2.185-6.428-7.12-11.844-13.165-14.465-6.395-2.744-13.591-2.454-19.735 0.783-60.881 32.122-148.85 78.473-148.85 78.473-21.244 11.203-46.323-5.118-46.323-30.205v-400.252h-141.721v183.248c0 18.637-14.341 33.765-32.016 33.765-20.169 0-36.568 17.299-36.568 38.571v108.5c0 82.509 63.699 147.071 139.445 147.071h28.29c21.46 0 42.896-5.311 62.048-15.398 0 0 158.805-83.291 199.25-104.537 8.663-4.538 12.782-15.195 9.588-24.798zM1028.785 456.046c0-10.315-3.796-19.997-10.697-27.277-6.799-7.176-16.227-11.291-25.873-11.291h-427.882c-0.058 0.185-0.1 0.369-0.158 0.545l79.457 167.595c7.904 16.682 1.501 36.959-14.316 45.304-15.808 8.336-35.043 1.582-42.955-15.099l-67.768-142.938c-12.631 6.639-27.313 14.351-43.047 22.599v358.414c0 21.262 16.4 38.568 36.568 38.568h480.1c9.646 0 19.074-4.115 25.88-11.309 6.895-7.263 10.691-16.945 10.691-27.26v-397.852zM923.648 815.329h-342.932c-17.684 0-32.016-15.116-32.016-33.768s14.332-33.767 32.016-33.767h342.932c17.674 0 32.017 15.116 32.017 33.767s-14.336 33.768-32.017 33.768zM923.621 688.74h-171.472c-17.674 0-32.017-15.116-32.017-33.767s14.343-33.767 32.017-33.767h171.472c17.674 0 32.017 15.116 32.017 33.767s-14.336 33.767-32.017 33.767zM923.621 562.148h-171.472c-17.674 0-32.017-15.116-32.017-33.767 0-18.642 14.343-33.767 32.017-33.767h171.472c17.674 0 32.017 15.124 32.017 33.767 0 18.65-14.336 33.767-32.017 33.767z" />
<glyph unicode="&#xe91c;" glyph-name="g-cap" horiz-adv-x="1161" d="M450.029 925.66c32.496 22.407 70.48 34.34 109.304 34.34s76.808-11.933 109.304-34.34l431.944-297.812c5.516-3.802 10.049-8.985 13.21-15.085 3.154-6.1 4.833-12.929 4.874-19.878 0.048-6.949-1.529-13.802-4.601-19.95s-7.543-11.398-13.005-15.284l-429.705-306.744c-33.057-23.6-72.062-36.215-111.981-36.215s-78.924 12.616-111.981 36.215l-367.464 262.165v-266.043c0-11.175-4.209-21.893-11.702-29.792-7.492-7.905-17.654-12.343-28.249-12.343s-20.757 4.437-28.249 12.343c-7.492 7.898-11.701 18.616-11.701 29.792v337.082c0 1.349 0 2.781 0.16 4.214-0.705 7.669 0.589 15.396 3.743 22.347s8.048 12.86 14.154 17.091l431.944 297.896zM159.833 162.761v191.63l242.739-173.341c46.279-33.041 100.881-50.702 156.766-50.702s110.487 17.661 156.766 50.702l242.736 173.341v-191.63c0.007-10.001-3.366-19.681-9.503-27.307v0l-0.082-0.164-0.164-0.171-0.478-0.587-1.597-1.857c-8.233-9.475-16.848-18.589-25.805-27.307-17.579-17.101-43.308-39.69-76.547-62.355-66.321-45.172-163.717-91.013-285.246-91.013-121.689 0-219.008 45.841-285.406 91.013-27.182 18.439-52.817 39.301-76.625 62.355-8.936 8.718-17.52 17.824-25.728 27.307l-1.598 1.857-0.479 0.587-0.16 0.171 30.362 27.389c-30.442-27.225-30.362-27.307-30.362-27.307-6.17 7.646-9.568 17.347-9.588 27.389z" />
<glyph unicode="&#xe91d;" glyph-name="mic" horiz-adv-x="887" d="M95.573 657.6c0 55.44 43.008 100.801 95.573 100.801h382.293l191.147 201.6h95.573v-806.4h-95.573l-191.147 201.6h-382.293c-25.347 0-49.657 10.62-67.581 29.524s-27.993 44.543-27.993 71.277h-95.573v201.6h95.573zM477.867 204.001v-252h-143.36l-79.804 252h-63.556v100.798h382.293v-100.798h-95.573z" />
<glyph unicode="&#xe91e;" glyph-name="calendar-alt" horiz-adv-x="896" d="M296 374.857h-80c-13.2 0-24 10.8-24 24v80c0 13.2 10.8 24 24 24h80c13.2 0 24-10.8 24-24v-80c0-13.2-10.8-24-24-24zM512 398.857v80c0 13.2-10.8 24-24 24h-80c-13.2 0-24-10.8-24-24v-80c0-13.2 10.8-24 24-24h80c13.2 0 24 10.8 24 24zM704 398.857v80c0 13.2-10.8 24-24 24h-80c-13.2 0-24-10.8-24-24v-80c0-13.2 10.8-24 24-24h80c13.2 0 24 10.8 24 24zM512 206.857v80c0 13.2-10.8 24-24 24h-80c-13.2 0-24-10.8-24-24v-80c0-13.2 10.8-24 24-24h80c13.2 0 24 10.8 24 24zM320 206.857v80c0 13.2-10.8 24-24 24h-80c-13.2 0-24-10.8-24-24v-80c0-13.2 10.8-24 24-24h80c13.2 0 24 10.8 24 24zM704 206.857v80c0 13.2-10.8 24-24 24h-80c-13.2 0-24-10.8-24-24v-80c0-13.2 10.8-24 24-24h80c13.2 0 24 10.8 24 24zM896 726.857v-704c0-53-43-96-96-96h-704c-53 0-96 43-96 96v704c0 53 43 96 96 96h96v104c0 13.2 10.8 24 24 24h80c13.2 0 24-10.8 24-24v-104h256v104c0 13.2 10.8 24 24 24h80c13.2 0 24-10.8 24-24v-104h96c53 0 96-43 96-96zM800 34.857v596h-704v-596c0-6.6 5.4-12 12-12h680c6.6 0 12 5.4 12 12z" />
<glyph unicode="&#xe91f;" glyph-name="download" d="M432 950.857h160c26.6 0 48-21.4 48-48v-336h175.4c35.6 0 53.4-43 28.2-68.2l-304.2-304.4c-15-15-39.6-15-54.6 0l-304.6 304.4c-25.2 25.2-7.4 68.2 28.2 68.2h175.6v336c0 26.6 21.4 48 48 48zM1024 198.857v-224c0-26.6-21.4-48-48-48h-928c-26.6 0-48 21.4-48 48v224c0 26.6 21.4 48 48 48h293.4l98-98c40.2-40.2 105-40.2 145.2 0l98 98h293.4c26.6 0 48-21.4 48-48zM776 22.857c0 22-18 40-40 40s-40-18-40-40 18-40 40-40 40 18 40 40zM904 22.857c0 22-18 40-40 40s-40-18-40-40 18-40 40-40 40 18 40 40z" />
<glyph unicode="&#xe920;" glyph-name="laugh" horiz-adv-x="992" d="M496 934.857c-274 0-496-222-496-496s222-496 496-496 496 222 496 496-222 496-496 496zM778.8 156.057c-75.6-75.6-176-117.2-282.8-117.2s-207.2 41.6-282.8 117.2-117.2 176-117.2 282.8 41.6 207.2 117.2 282.8 176 117.2 282.8 117.2 207.2-41.6 282.8-117.2 117.2-176 117.2-282.8-41.6-207.2-117.2-282.8zM656 502.857c35.4 0 64 28.6 64 64s-28.6 64-64 64-64-28.6-64-64 28.6-64 64-64zM336 502.857c35.4 0 64 28.6 64 64s-28.6 64-64 64-64-28.6-64-64 28.6-64 64-64zM724.8 374.857h-457.6c-16.4 0-29-14-27-30 15-118.4 117.8-210 242.2-210h27.2c124.4 0 227.2 91.6 242.2 210 2 16-10.6 30-27 30z" />
<glyph unicode="&#xe921;" glyph-name="signal" horiz-adv-x="1280" d="M432 374.857h-96c-17.68 0-32-14.32-32-32v-384c0-17.68 14.32-32 32-32h96c17.68 0 32 14.32 32 32v384c0 17.68-14.32 32-32 32zM176 182.857h-96c-17.68 0-32-14.32-32-32v-192c0-17.68 14.32-32 32-32h96c17.68 0 32 14.32 32 32v192c0 17.68-14.32 32-32 32zM688 566.857h-96c-17.68 0-32-14.32-32-32v-576c0-17.68 14.32-32 32-32h96c17.68 0 32 14.32 32 32v576c0 17.68-14.32 32-32 32zM944 758.857h-96c-17.68 0-32-14.32-32-32v-768c0-17.68 14.32-32 32-32h96c17.68 0 32 14.32 32 32v768c0 17.68-14.32 32-32 32zM1200 950.857h-96c-17.68 0-32-14.32-32-32v-960c0-17.68 14.32-32 32-32h96c17.68 0 32 14.32 32 32v960c0 17.68-14.32 32-32 32z" />
<glyph unicode="&#xe922;" glyph-name="user-graduate" horiz-adv-x="896" d="M638.8 309.657l-190.8-190.8-190.8 190.8c-143-6.2-257.2-123.2-257.2-267.6v-19.2c0-53 43-96 96-96h704c53 0 96 43 96 96v19.2c0 144.4-114.2 261.4-257.2 267.6zM27.2 791.257l12.8-3v-116.8c-14-8.4-24-23-24-40.6 0-16.8 9.2-30.8 22.2-39.4l-31.2-124.6c-3.4-13.8 4.2-28 15.2-28h83.6c11 0 18.6 14.2 15.2 28l-31.2 124.6c13 8.6 22.2 22.6 22.2 39.4 0 17.6-10 32.2-24 40.6v105.2l132-31.8c-17.2-34.4-28-72.8-28-114 0-141.4 114.6-256 256-256s256 114.6 256 256c0 41.2-10.6 79.6-28 114l192.6 46.4c36.4 8.8 36.4 54.2 0 63l-380.8 92c-26 6.2-53.4 6.2-79.4 0l-381.2-91.8c-36.2-8.8-36.2-54.4 0-63.2z" />
<glyph unicode="&#xe923;" glyph-name="users" horiz-adv-x="1280" d="M192 502.857c70.6 0 128 57.4 128 128s-57.4 128-128 128-128-57.4-128-128 57.4-128 128-128zM1088 502.857c70.6 0 128 57.4 128 128s-57.4 128-128 128-128-57.4-128-128 57.4-128 128-128zM1152 438.857h-128c-35.2 0-67-14.2-90.2-37.2 80.6-44.2 137.8-124 150.2-218.8h132c35.4 0 64 28.6 64 64v64c0 70.6-57.4 128-128 128zM640 438.857c123.8 0 224 100.2 224 224s-100.2 224-224 224-224-100.2-224-224 100.2-224 224-224zM793.6 374.857h-16.6c-41.6-20-87.8-32-137-32s-95.2 12-137 32h-16.6c-127.2 0-230.4-103.2-230.4-230.4v-57.6c0-53 43-96 96-96h576c53 0 96 43 96 96v57.6c0 127.2-103.2 230.4-230.4 230.4zM346.2 401.657c-23.2 23-55 37.2-90.2 37.2h-128c-70.6 0-128-57.4-128-128v-64c0-35.4 28.6-64 64-64h131.8c12.6 94.8 69.8 174.6 150.4 218.8z" />
<glyph unicode="&#xe924;" glyph-name="frown" horiz-adv-x="992" d="M496 934.857c-274 0-496-222-496-496s222-496 496-496 496 222 496 496-222 496-496 496zM496 38.857c-220.6 0-400 179.4-400 400s179.4 400 400 400 400-179.4 400-400-179.4-400-400-400zM336 470.857c35.4 0 64 28.6 64 64s-28.6 64-64 64-64-28.6-64-64 28.6-64 64-64zM656 598.857c-35.4 0-64-28.6-64-64s28.6-64 64-64 64 28.6 64 64-28.6 64-64 64zM496 342.857c-80.4 0-156-35.4-207.6-97.2-17-20.4-14.2-50.6 6.2-67.6 20.4-16.8 50.6-14.2 67.6 6.2 33.2 39.8 82 62.8 133.8 62.8s100.6-22.8 133.8-62.8c16.2-19.4 46.2-23.8 67.6-6.2 20.4 17 23 47.2 6.2 67.6-51.6 61.8-127.2 97.2-207.6 97.2z" />
<glyph unicode="&#xe925;" glyph-name="sum" d="M817.778 832h-517l252-353c12-20.667 12.333-41.333 1-62-1.333-2-23-32.499-65-91.499s-83.667-117.333-125-175.002l-62-86.5h516c18 0 33.166-6.332 45.5-19.001 12.334-12.663 18.5-27.83 18.5-45.5 0-17.664-6.167-32.666-18.5-44.999s-27.5-18.5-45.5-18.5h-640c-18 0-33.167 6.167-45.5 18.5s-18.5 27.5-18.5 45.5c0 11.998 6.667 27.335 20 46l286 401c-192.667 270-292 409.333-298 418-5.333 10-8 20.333-8 31 0 18 6.333 33.167 19 45.5s27.667 18.5 45 18.5h640c18 0 33.166-6.167 45.5-18.5s18.5-27.333 18.5-45c0-17.667-6.167-32.833-18.5-45.5s-27.5-19-45.5-19z" />
<glyph unicode="&#xe926;" glyph-name="bar_chart" d="M692 384.667h118v-256h-118v256zM452 724.667h120v-596h-120v596zM214 546.667h128v-418h-128v418z" />
<glyph unicode="&#xe927;" glyph-name="grin-squint" horiz-adv-x="992" d="M496 934.857c-274 0-496-222-496-496s222-496 496-496 496 222 496 496-222 496-496 496zM496 38.857c-220.6 0-400 179.4-400 400s179.4 400 400 400 400-179.4 400-400-179.4-400-400-400zM707.2 341.657c-51.8-16.6-128.8-26.2-211.2-26.2s-159.2 9.6-211.2 26.2c-19.8 6.2-38.8-10.8-35.4-30.6 15.8-94.2 142.6-160 246.6-160s230.6 65.8 246.6 160c3.2 19.6-15.4 36.8-35.4 30.6zM237.8 423.257c7.2-8.4 19.8-11.4 30.6-5l160 96c7.2 4.4 11.6 12.2 11.6 20.6s-4.4 16.2-11.6 20.6l-160 96c-10.2 6-22.8 3.8-30.6-5-7.6-9-7.6-22-0.2-31l67.2-80.6-67.2-80.6c-7.6-9-7.4-22.2 0.2-31zM723.6 418.257c10.8-6.4 23.4-3.4 30.6 5 7.6 9 7.6 22 0.2 31l-67.2 80.6 67.2 80.6c7.6 9 7.4 22-0.2 31-7.6 8.8-20.4 10.8-30.6 5l-160-96c-7.2-4.4-11.6-12.2-11.6-20.6s4.4-16.2 11.6-20.6l160-96z" />
<glyph unicode="&#xe928;" glyph-name="frown1" horiz-adv-x="992" d="M496 934.857c-274 0-496-222-496-496s222-496 496-496 496 222 496 496-222 496-496 496zM656 598.857c35.4 0 64-28.6 64-64s-28.6-64-64-64-64 28.6-64 64 28.6 64 64 64zM336 598.857c35.4 0 64-28.6 64-64s-28.6-64-64-64-64 28.6-64 64 28.6 64 64 64zM676.4 162.457c-44.8 53.6-110.6 84.4-180.4 84.4s-135.6-30.8-180.4-84.4c-27-32.6-76.2 8.4-49.2 41 57 68.2 140.8 107.4 229.6 107.4s172.6-39.2 229.4-107.6c27.2-32.4-22-73.4-49-40.8z" />
<glyph unicode="&#xe929;" glyph-name="not-equal" horiz-adv-x="896" d="M832 534.857c35.34 0 64 28.66 64 64v64c0 35.34-28.66 64-64 64h-47.76l103.74 133.62c10.74 14.040 8.080 34.12-5.94 44.86l-50.82 38.92c-14.040 10.76-34.12 8.080-44.88-5.94l-164.16-211.46h-558.18c-35.34 0-64-28.66-64-64v-64c0-35.34 28.66-64 64-64h409.12l-149.060-192h-260.060c-35.34 0-64-28.66-64-64v-64c0-35.34 28.66-64 64-64h110.98l-103.74-133.62c-10.74-14.020-8.080-34.1 5.94-44.86l50.82-38.92c14.040-10.76 34.12-8.080 44.86 5.94l164.18 211.46h494.96c35.34 0 64 28.66 64 64v64c0 35.34-28.66 64-64 64h-345.9l149.060 192h196.84z" />
<glyph unicode="&#xe92a;" glyph-name="left-quote" d="M1024 64v384h-256c0 141.12 114.752 256 256 256v128c-211.744 0-384-172.256-384-384v-384h384zM384 64v384h-256c0 141.12 114.752 256 256 256v128c-211.744 0-384-172.256-384-384v-384h384z" />
<glyph unicode="&#xe92b;" glyph-name="right-quote" d="M0 832v-384h256c0-141.12-114.752-256-256-256v-128c211.744 0 384 172.256 384 384v384h-384zM640 832v-384h256c0-141.12-114.752-256-256-256v-128c211.744 0 384 172.256 384 384v384h-384z" />
<glyph unicode="&#xe92c;" glyph-name="play" d="M981.188 799.892c-143.632 20.65-302.332 32.108-469.186 32.108-166.86 0-325.556-11.458-469.194-32.108-27.53-107.726-42.808-226.75-42.808-351.892 0-125.14 15.278-244.166 42.808-351.89 143.638-20.652 302.336-32.11 469.194-32.11 166.854 0 325.552 11.458 469.186 32.11 27.532 107.724 42.812 226.75 42.812 351.89 0 125.142-15.28 244.166-42.812 351.892zM384.002 256v384l320-192-320-192z" />
<glyph unicode="&#xe92d;" glyph-name="award" horiz-adv-x="768" d="M194.24 225.597c-17.38 17.38-8.32 12.48-50.24 23.7-19.020 5.1-35.74 14.9-50.86 26.64l-90.74-222.48c-8.78-21.54 7.62-44.94 30.86-44.060l105.38 4.020 72.48-76.56c16-16.88 44.080-11.62 52.86 9.92l104.1 255.24c-21.68-12.080-45.74-19.16-70.62-19.16-39 0-75.64 15.18-103.22 42.74zM765.6 53.457l-90.74 222.48c-15.12-11.76-31.84-21.54-50.86-26.64-42.14-11.28-32.9-6.36-50.24-23.7-27.58-27.56-64.24-42.74-103.24-42.74-24.88 0-48.94 7.1-70.62 19.16l104.1-255.24c8.78-21.54 36.88-26.8 52.86-9.92l72.5 76.56 105.38-4.020c23.24-0.88 39.64 22.54 30.86 44.060zM526 270.857c30.56 31.1 34.060 28.42 77.58 40.28 27.78 7.58 49.5 29.68 56.94 57.96 14.96 56.8 11.080 49.94 51.9 91.5 20.34 20.7 28.28 50.88 20.84 79.16-14.94 56.76-14.96 48.84 0 105.66 7.44 28.28-0.5 58.46-20.84 79.16-40.82 41.56-36.94 34.72-51.9 91.5-7.44 28.28-29.16 50.38-56.94 57.96-55.76 15.22-49.040 11.24-89.9 52.82-20.34 20.7-50 28.8-77.78 21.22-55.74-15.2-47.96-15.22-103.8 0-27.78 7.58-57.44-0.5-77.78-21.22-40.82-41.56-34.1-37.6-89.88-52.82-27.78-7.58-49.5-29.68-56.94-57.96-14.94-56.78-11.080-49.94-51.9-91.5-20.34-20.7-28.3-50.88-20.84-79.16 14.94-56.72 14.96-48.8 0-105.64-7.44-28.28 0.5-58.46 20.84-79.18 40.82-41.56 36.94-34.7 51.9-91.5 7.44-28.28 29.16-50.38 56.94-57.96 44.76-12.2 48.1-10.28 77.56-40.28 26.46-26.94 67.68-31.76 99.48-11.64 12.043 7.753 26.748 12.36 42.53 12.36s30.487-4.607 42.845-12.549l-0.315 0.19c31.78-20.12 73-15.3 99.46 11.64zM195.32 598.937c0 106.060 84.48 192.040 188.68 192.040s188.68-85.98 188.68-192.040-84.48-192.040-188.68-192.040-188.68 85.98-188.68 192.040z" />
<glyph unicode="&#xe92e;" glyph-name="stack" d="M1024 640l-512 256-512-256 512-256 512 256zM512 811.030l342.058-171.030-342.058-171.030-342.058 171.030 342.058 171.030zM921.444 499.278l102.556-51.278-512-256-512 256 102.556 51.278 409.444-204.722zM921.444 307.278l102.556-51.278-512-256-512 256 102.556 51.278 409.444-204.722z" />
<glyph unicode="&#xe92f;" glyph-name="video_library" d="M512 320.667l256 192-256 192v-384zM854 852.667q34 0 59-25t25-59v-512q0-34-25-60t-59-26h-512q-34 0-60 26t-26 60v512q0 34 26 59t60 25h512zM170 682.667v-598h598v-84h-598q-34 0-59 25t-25 59v598h84z" />
<glyph unicode="&#xe930;" glyph-name="access_time" d="M534 640.667v-224l192-114-32-54-224 136v256h64zM512 84.667q140 0 241 101t101 241-101 241-241 101-241-101-101-241 101-241 241-101zM512 852.667q176 0 301-125t125-301-125-301-301-125-301 125-125 301 125 301 301 125z" />
<glyph unicode="&#xe931;" glyph-name="event_note" d="M598 340.667v-84h-300v84h300zM810 128.667v468h-596v-468h596zM810 810.667q34 0 60-26t26-60v-596q0-34-26-60t-60-26h-596q-36 0-61 25t-25 61v596q0 34 25 60t61 26h42v86h86v-86h340v86h86v-86h42zM726 512.667v-86h-428v86h428z" />
<glyph unicode="&#xe932;" glyph-name="phone_missed" d="M1012 226.667q12-12 12-30t-12-30l-106-106q-12-12-30-12t-30 12q-56 52-114 80-24 10-24 38v132q-92 30-196 30t-196-30v-132q0-30-24-40-64-30-114-78-12-12-30-12t-30 12l-106 106q-12 12-12 30t12 30q210 200 500 200 120 0 266-59t234-141zM278 704.667v-150h-64v256h256v-64h-150l192-192 256 256 42-42-298-300z" />
<glyph unicode="&#xe933;" glyph-name="star_half" d="M512 280.667l160-96-42 182 142 124-188 16-72 172v-398zM938 544.667l-232-202 70-300-264 160-264-160 70 300-232 202 306 26 120 282 120-282z" />
<glyph unicode="&#xe934;" glyph-name="date_range" d="M810 84.667v470h-596v-470h596zM810 768.667q34 0 60-26t26-60v-598q0-34-26-59t-60-25h-596q-36 0-61 24t-25 60v598q0 34 25 60t61 26h42v84h86v-84h340v84h86v-84h42zM726 468.667v-84h-86v84h86zM554 468.667v-84h-84v84h84zM384 468.667v-84h-86v84h86z" />
<glyph unicode="&#xe935;" glyph-name="at" d="M955.008 192c43.872 75.36 68.992 162.496 68.992 256 0 282.752-229.248 512-512 512s-512-229.248-512-512 229.248-512 512-512c141.376 0 269.376 57.248 361.984 150.016l-90.624 90.624c-69.472-69.632-165.472-112.64-271.36-112.64-211.744 0-384 172.256-384 384s172.256 384 384 384 384-172.256 384-384c0-45.504-8.736-88.992-23.36-129.504l-1.024 1.504h-103.616v382.624h-256c-141.376 0-256-114.624-256-256s114.624-256 256-256c58.752 0 112.256 20.64 155.488 53.888 23.264-31.008 58.752-52.512 100.512-52.512h187.008zM640 511.744v-65.12c0-70.624-57.504-128-128-128s-128 57.376-128 128 57.504 128 128 128h128v-62.88z" />
<glyph unicode="&#xe936;" glyph-name="map-marker-alt" horiz-adv-x="768" d="M344.536-52.483c-290.596 421.278-344.536 464.514-344.536 619.34 0 212.078 171.922 384 384 384s384-171.922 384-384c0-154.826-53.94-198.062-344.536-619.34-19.070-27.548-59.86-27.546-78.928 0zM384 406.857c88.366 0 160 71.634 160 160s-71.634 160-160 160-160-71.634-160-160 71.634-160 160-160z" />
<glyph unicode="&#xe9e1;" glyph-name="smile" d="M512-64c282.77 0 512 229.23 512 512s-229.23 512-512 512-512-229.23-512-512 229.23-512 512-512zM512 864c229.75 0 416-186.25 416-416s-186.25-416-416-416-416 186.25-416 416 186.25 416 416 416zM256 640c0 35.346 28.654 64 64 64s64-28.654 64-64c0-35.346-28.654-64-64-64s-64 28.654-64 64zM640 640c0 35.346 28.654 64 64 64s64-28.654 64-64c0-35.346-28.654-64-64-64s-64 28.654-64 64zM704.098 332.74l82.328-49.396c-55.962-93.070-157.916-155.344-274.426-155.344s-218.464 62.274-274.426 155.344l82.328 49.396c39.174-65.148 110.542-108.74 192.098-108.74s152.924 43.592 192.098 108.74z" />
<glyph unicode="&#xe9f7;" glyph-name="neutral" d="M512-64c282.77 0 512 229.23 512 512s-229.23 512-512 512-512-229.23-512-512 229.23-512 512-512zM512 864c229.75 0 416-186.25 416-416s-186.25-416-416-416-416 186.25-416 416 186.25 416 416 416zM256 640c0-35.346 28.654-64 64-64s64 28.654 64 64-28.654 64-64 64-64-28.654-64-64zM640 640c0-35.346 28.654-64 64-64s64 28.654 64 64-28.654 64-64 64-64-28.654-64-64zM384 256h256v-64h-256v64z" />
<glyph unicode="&#xea0f;" glyph-name="cross" d="M1014.662 137.34c-0.004 0.004-0.008 0.008-0.012 0.010l-310.644 310.65 310.644 310.65c0.004 0.004 0.008 0.006 0.012 0.010 3.344 3.346 5.762 7.254 7.312 11.416 4.246 11.376 1.824 24.682-7.324 33.83l-146.746 146.746c-9.148 9.146-22.45 11.566-33.828 7.32-4.16-1.55-8.070-3.968-11.418-7.31 0-0.004-0.004-0.006-0.008-0.010l-310.648-310.652-310.648 310.65c-0.004 0.004-0.006 0.006-0.010 0.010-3.346 3.342-7.254 5.76-11.414 7.31-11.38 4.248-24.682 1.826-33.83-7.32l-146.748-146.748c-9.148-9.148-11.568-22.452-7.322-33.828 1.552-4.16 3.97-8.072 7.312-11.416 0.004-0.002 0.006-0.006 0.010-0.010l310.65-310.648-310.65-310.652c-0.002-0.004-0.006-0.006-0.008-0.010-3.342-3.346-5.76-7.254-7.314-11.414-4.248-11.376-1.826-24.682 7.322-33.83l146.748-146.746c9.15-9.148 22.452-11.568 33.83-7.322 4.16 1.552 8.070 3.97 11.416 7.312 0.002 0.004 0.006 0.006 0.010 0.010l310.648 310.65 310.648-310.65c0.004-0.002 0.008-0.006 0.012-0.008 3.348-3.344 7.254-5.762 11.414-7.314 11.378-4.246 24.684-1.826 33.828 7.322l146.746 146.748c9.148 9.148 11.57 22.454 7.324 33.83-1.552 4.16-3.97 8.068-7.314 11.414z" />
<glyph unicode="&#xea10;" glyph-name="checkmark" d="M864 832l-480-480-224 224-160-160 384-384 640 640z" />
<glyph unicode="&#xf095;" glyph-name="phone" horiz-adv-x="805" d="M804.571 242.286c0-20.571-9.143-60.571-17.714-79.429-12-28-44-46.286-69.714-60.571-33.714-18.286-68-29.143-106.286-29.143-53.143 0-101.143 21.714-149.714 39.429-34.857 12.571-68.571 28-100 47.429-97.143 60-214.286 177.143-274.286 274.286-19.429 31.429-34.857 65.143-47.429 100-17.714 48.571-39.429 96.571-39.429 149.714 0 38.286 10.857 72.571 29.143 106.286 14.286 25.714 32.571 57.714 60.571 69.714 18.857 8.571 58.857 17.714 79.429 17.714 4 0 8 0 12-1.714 12-4 24.571-32 30.286-43.429 18.286-32.571 36-65.714 54.857-97.714 9.143-14.857 26.286-33.143 26.286-50.857 0-34.857-103.429-85.714-103.429-116.571 0-15.429 14.286-35.429 22.286-49.143 57.714-104 129.714-176 233.714-233.714 13.714-8 33.714-22.286 49.143-22.286 30.857 0 81.714 103.429 116.571 103.429 17.714 0 36-17.143 50.857-26.286 32-18.857 65.143-36.571 97.714-54.857 11.429-5.714 39.429-18.286 43.429-30.286 1.714-4 1.714-8 1.714-12z" />
<glyph unicode="&#xf098;" glyph-name="phone-square" horiz-adv-x="878" d="M731.429 269.143c0 2.857 0 6.286-1.143 9.143-3.429 10.286-86.857 52.571-102.857 61.714-10.857 6.286-24 18.857-37.143 18.857-25.143 0-62.286-74.857-84.571-74.857-11.429 0-25.714 10.286-36 16-75.429 42.286-127.429 94.286-169.714 169.714-5.714 10.286-16 24.571-16 36 0 22.286 74.857 59.429 74.857 84.571 0 13.143-12.571 26.286-18.857 37.143-9.143 16-51.429 99.429-61.714 102.857-2.857 1.143-6.286 1.143-9.143 1.143-14.857 0-44-6.857-57.714-12.571-37.714-17.143-65.143-89.143-65.143-128.571 0-38.286 15.429-73.143 28.571-108.571 45.714-125.143 181.714-261.143 306.857-306.857 35.429-13.143 70.286-28.571 108.571-28.571 39.429 0 111.429 27.429 128.571 65.143 5.714 13.714 12.571 42.857 12.571 57.714zM877.714 713.143v-548.571c0-90.857-73.714-164.571-164.571-164.571h-548.571c-90.857 0-164.571 73.714-164.571 164.571v548.571c0 90.857 73.714 164.571 164.571 164.571h548.571c90.857 0 164.571-73.714 164.571-164.571z" />
<glyph unicode="&#xf2b6;" glyph-name="envelope-open" d="M1024 577.143v-558.857c0-50.286-41.143-91.429-91.429-91.429h-841.143c-50.286 0-91.429 41.143-91.429 91.429v558.857c0 5.143 2.286 10.286 6.286 13.714 60 52.571 60.571 58.857 358.857 276.571 36 26.286 99.429 83.429 146.857 83.429s111.429-57.714 146.857-83.429c298.286-217.714 298.857-224 358.857-276.571 4-3.429 6.286-8.571 6.286-13.714zM701.714 242.857c89.143 64.571 151.429 109.714 197.143 144 8 5.714 9.714 17.143 3.429 25.143l-21.714 29.714c-6.286 8-17.714 9.714-25.714 3.429-45.143-33.143-106.857-78.857-196-142.857-35.429-25.714-99.429-82.857-146.857-82.857s-111.429 57.143-146.857 82.857c-89.143 64.571-150.857 109.714-196 142.857-8 6.286-19.429 4.571-25.714-3.429l-21.714-29.714c-6.286-8-4.571-19.429 3.429-25.143 45.714-34.286 108-79.429 197.143-144 44.571-32 114.857-96.571 189.714-96.571 75.429 0 147.429 65.714 189.714 96.571z" />
</font>
</defs>
</svg>
